<mxfile host="65bd71144e">
    <diagram id="ORQasvYgO4t823fwRzE7" name="Page-1">
        <mxGraphModel dx="1973" dy="656" grid="1" gridSize="10" guides="1" tooltips="1" connect="1" arrows="1" fold="1" page="1" pageScale="1" pageWidth="827" pageHeight="1169" math="0" shadow="0">
            <root>
                <mxCell id="0"/>
                <mxCell id="1" parent="0"/>
                <mxCell id="2" value="" style="shape=image;verticalLabelPosition=bottom;labelBackgroundColor=#ffffff;verticalAlign=top;aspect=fixed;imageAspect=0;image=data:image/png,iVBORw0KGgoAAAANSUhEUgAAAK4AAAF6CAYAAACA1GNjAAAAAXNSR0IArs4c6QAAAARnQU1BAACxjwv8YQUAAAAJcEhZcwAADsMAAA7DAcdvqGQAAB1gSURBVHhe7Z1brB1Xecc/3+927Ng+dvAtsUmaFJwEKEoBQSWEIyFFIoDEAwlVeSnhpUhO+oLUmErtA5cH+oB5KEHlIooULlJKQhIJGimmIbUEISJYIXbs2sex48tJ7HN8O750frPns8fjvc85e++Z2fvb/v+k0Z5Za9ZlZv3Xt75Ze+9Z04aHhy+ZEMGYnn0KEYpwwr106ZJduHDBzp8/n4WI65EJhXvmzBl7+umnbe/evVnItSCg3bt3W+Jy2MWLF7PQBufOnbM//vGPdvz48VRwztmzZ+3FF1+0Y8eOXZNmMshzz5499sorr1wjXuIIJ998eVOFDnHkyJE0H9HfTCjco0eP2syZM+2NN95IG7UfmDNnjr3zne+0zZs3p3UrEzrCa6+9ZmNjY1mI6FdaPpxhCXfu3Gnr1q1LLe7tt99uS5YsSeOwSn/+859tZGTEbrjhhlRMq1evTjdE/uqrr9qpU6ds+fLlNm3aNNu0aZMtXbo03Qcs7ksvvWQbN25Mw7CgWLm33norFeP73//+tKwTJ06k5Rw+fNhmzZpl69evtzVr1qQdivxvvfVWO3To0OXybrzxRps+fXqa77Jly+zAgQO2a9euNO958+bZe97zHps9e3Y6OpDH6dOn0zjyvfnmm1NrvW/fvvR6brvttjQf0Z/M2Lp167Zs/yqwOjQwokNoiGjFihVpYyNORHn33XfbokWL7O2337a5c+fajBkz0jRYxDvvvDMVm4t7/vz5l4WL9UaMiIswBPaud73L3v3ud6fCI82CBQtSUSK4973vfTY0NJS6LuPj46kbwCcCO3jwYCowLDCiRPyInjLocO9973vtjjvuSOtCvYnjHOpDHbkmRE+5a9eutZMnT6bXddNNN6V1Ff1JS1fBRYMAEB4WCrEgXBqZhkeoCAzxYikROwJmQ5CLFy9O4zlvIhAgG2nIFyFRDpAHefOJQFeuXJmGA+WRjnpSp3x5dCbyY3TYv39/ei4bFpb8SMd5CBronCIOTYWLr4d1Qry//vWvU5cBK4UljAodgtEDwYr4NBUubgEW7N5777WPf/zj6cZQzJDOcIzlxXphjflkeEXsWD6sJUM6wzn5+Hnt4lZ7dHQ0TZ/3dx3KwzKz4ZPny8MloA64ArgAjBrFWYgiXDNbJzMSol6aChc/lQbPP7Xz4IOICCOOh5hf/vKX6QMNQvHhHN+XB68nn3zSXn/99VQIk7kKzcAyUiZDPeW88MILqTjxix0v7+WXX7annnoqfchD7JRHHPV8/vnn07rs2LEjDac+rSCe/H7729+m1yf6l46/8kVEbG6l8ngcQkBI3YD1o2O4IJsxUXmkx9LSsbqti+gf9FsFEZLW46YQfcw1FnfpPx/M9oToLWfuWWCntzS+9CpyjXCHPrPbZhwaz46E6B0jX17dgXD/bm0WIkTN/M+I2a7RDoX73bvMPnRl6kmI2rjvxUmFq4czERIJV4REwhUhkXBFSCRcERIJV4RE02GiLV49bDbWxX9Jly8wWzuZrDQdJsrm6KjZgZHOt6Ml/Q9VwhVtMW+22fwuttnt/zS7KXIVRP8hV0EMKhKuCIlcBdEW/7vX7ETjzQEdsSoZ+f9ysldWyFUQZTN+wexUYtc63c6V9CYvCVe0xdqlZrcOdb6tXpxl1CVyFUT/IVdBDCoSrmiLU+e62/CRy0CugmiL3+w2O9bF17ZrEh/57sn+zihXQQwqsriiLZjDPdfe6gdXsWBW4/cOEyKLK8pm8bzGTxM73SYV7RSRcEVIJFwREglXhETCFSGRcEVIJFwREglXhETCFSGRcEVIJFwREglXhETCFSGRcEVIJFwREglXhETCFSGRcEVIJFwREglXhETCFSGRcEVIJFwREglXhETCFSGRcEVIJFwREglXhETCFSGRcEVIJFwREglXhETCFSGRcEVIJFwREglXhETCFSGRcEVIJFwREglXhETCFSGRcEVIJNzrnNGzZi8dyA4C0fVavlz4T39ntvuI2Viyv2CO2Qc2mt17R3aCuIrvvWB2+ER2kLEwuWeb15h9MLlvdfPAY436fO4esweT7elXzP6QCHnjCrNP3p2dVDdVr+V7KLngL/zQ7PtJY7AcPD2Xz68/Y/bw49lJfcSjTzQa6lvPZQE9gHv0TCKO/EbH35bVjXvaLj9J0pO2k3s+tPjqT0RLnWjHfqYr4X4tESi9dVVy0dvuSwT76UavBRqI3ttPMDpQX0aGXnNnYmEf3mL20EfMtmSjE3VDfNSzHbge0nYi+m8kbfbzh67UIQoztm7dui3bT1n4+IhNH71o9olVZuvmZaHNwbLC/cmQct/mhoBpEGCfDdcBa0IvplcTBgib9ISTZkfSw7+dWEJcjtkzG50CS06D/NWGhlX6l6euuCWk4Tz2/zUJ9/w9HcezkvhNyZAHhFPm+IWGMLAoDIfLFjTiGcK3J+X/585G2nPJebevbsQBcT9O4vCrsErUhfNGTjXqQnrKyIc1g3iuiXiGZ8rAReCYOERInbxs6kqdyJtrp97Uwa8La/uLlxvppiXHO/ddHU+af99x5Z786VDjunFPgHz/K0nvacife0o7uZhfS46/+Suz7yT5NKtD6fxo2OzoOTvz4UV2fuPcLPBqurK43ADghmBd3VLQII8k1oQL5wZwIxANDe6QhjAaEcHxyTE3hSGdcwnjRm1NrBDC4ZiNtD9LwoEyScdG43g6yqRj0CGAeLe0XpbXF9eBtKQBPikvP/TSeKShPl4XznPBeifzsHZHG4SLnwv5+0QdPG+gDlwXYbAnKc/j/F74sXdGz4+6ce/y18X5+TRFsOKcT7tw/2grr0MvR9SuhOtuARfNhdy/veHz0rj5YetjWc/lgh3fx1rnId0/JqL/weevbkjckHxYs5uGdWfY4zy37C7wfFo61LNfaoiFevg5X0yGbc6jLCCuWM6ppPG8Lm61qN+3P3ttWLu4IaCTAGUjNq6FvNkoBxAlQsVAeDsgKq4LwwGk5Zq/krhx+bS0F3FTAaEjWK7rZ8m9xbWgPPLlXvSKroTLEMcNQQh+07khbq1cvP60jBC42TSM9/DikzQ3n1kJPn249f18WDN4Cka8nOcdwstshVtkxOFpWlk/4Dq9LtTTw9jyYa0s2FRw8WPlgGv6fVIPhMy9K8a3AsGyUS/S5jvhRPckD2mB8xlZcE24fgRcNDp10pVwgQuj17vF4WEDaDi3ZN7QwM12MeTDy8CtLOTzdRehGR5XrIfnVRQgIirSLKwT3Aq6MF1chDOi+TZV0THyMdvAKEi6Z3PCnSpMa7pAsb48h2CUyHeqVrsKOhYuPZ/Ks3nj0vhYPbc6+QtzRx8L6FbOw8oi757kBTeRsDwunxb82EVUNZTnHdrvi3ceH9mKW3G0ysN9ZuSjY+I6cP72zFVoF1woXDCfNaJe3F+eRXpFx8Kl8twUvwBEyj5DiQ9heSvmjVG0uGXCAwsCYMPaAEN4UXzU062WNz5hnoZG9zp6JywbyvPhG38VqwjcV78v7n5RH57iuZ98fjWxngzb7gs7tId3uHzHQ2ykncy1aIbXjfKoF53A78lEI1nVdCxcvyGAaLk4rC9DCdAA/pAAHOM3umDKdhOAxnowqQMbwoD8tz8uCITAgyTnEOadCgv1iSTcn7qZ7il7VHCogw/9dDhEwD3Cqvl9oe6Il3vGNXF/+aRTcb5fj3/6eXRA75CEkY72cdetHcib9mWU9Hy8g/fsm7WEruZxmWvkZgNzqmwIGr/oHz56rTARilsyRO0WBYjjJiOWvBWcLIxjfC/gQQQ8niHub25rhAHlMccK1PWupFGoI/lwHeQFXMOnkkbhGjgPmHZiXpiG9DlWwrCAzcIon/nnIp4P5fpGejrIl5Lylmbzyg71pw4IlbnlZnWj7l5/wqgLeXK9x5PrJS1zwzyL/N/IlWsmjA5EmdwLzi/Wn3w5l3y4d9SBONqvMuFOYR63698qtAPzpd7rmVqhEbqFG+8WEj+ORhHBqfq3ClOFYYYh2EVLTy1DtOL6pRbhMoTxdSTWkCHGp8yE6JRaXQUhpkS/uApClI2EK0Ii4YqQSLgiJBKuCImEK0Ii4YqQSLgiJBKuCImEK0Ii4YqQSLgiJBKuCImEK0Ii4YqQSLgiJBKuCImEK0Ii4YqQSLgiJBKuCImEK0Ii4YqQSLgiJBKuCImEK0Ii4YqQSLgiJBKuCImEK0Ii4YqQSLgiJBKuCImEK0Ii4YqQSLgiJBKuCImEK0Ii4YqQSLgiJF0J980337RDhw6l27Fjx+zUqWyFZyEqpivhjo6O2vz5823JkiU2c+bMVMBHjx7NYluDwA8fPpwdCdE+XbsKCHfevHmpeNevX29vvfWWXbx4MY0bHx9PhYygT5xorKlPGPtnzpxJrbSDmDnvyJEj6TlCTESpPu6MGTNs8eLF9vbbb6fH+/fvt2nTpqWiJgzBTp8+3ebMmZN+InogDsEuXLjQZs+ebQcPHrwsfiGaUfrDGeJ10W3YsMFuvPHGVKiI9PTp02k8xwgUSw1Y6ZtuuikVLiInXv6ymIjShcswP2vWrHT/+PHjtm/fvtTyItpWnD17NvV5Dxw4kG7nz59PLbIQrShVHYgWS4kl5ZMNv5dt0aJF2VnXwoMdFnfNmjWXN3cjhGhG18I9efJk6qOOjIyklpWhHovLduHChcsCzj+I4S54OCxdujR9MPOwPXv2yMcVE9KVcBEcAmNoh9WrV6c+LSDcFStWpMIeGxuzlStX2oIFC9I4fNhly5alcUA+xHHMRj5yFcREdC1chMrGvj9sOTxsDQ0NpQJmn83BMhPn+DFbMR8hisisiZBIuCIkEq4IiYQrQiLhipBIuCIkEq4IybTh4eFL2X7K0Gd224xD42bfvcvsQ8uy0Gt54DGzw41fKgoxZR7ZYrbljuygFfe9aLZr1Ea+vNpOb1mSBV5Nx8Ldsdts9Gx2IMQUuWtNorHF2UErqhSuEJUxBeHKxxUhkXBFSCRcERIJV4REwhUhkXBFSCRcERIJV4REwhUhkXBFSCRcERIJV4REwhUhkXBFSCRcERIJV4REwhUhkXBFSCRcEZKOhcvrRf19tvmNt4sD78zVO25FVXQsXATq77NlsRHWcWCfJaSAfV7sLEQVdCxc3mHr77PlRc28H5d9f7Ez+7zcGavrGxbZQfhunfMQlj9PiGZU5uPyWn3eVM56Zixg8sYbb6RW+fXXX09XpGR/eHg4fQU/IGzO45X7xLEvV0O0oraHs3e84x3pAiUsVDJ37tzUIhPmC/chYNZI4xw2LLqvlyZEkVqE68tHgS9sAqzz4FYV9wD/mEVM2HAZzp07l8YJUaQ2izsZrMSDn7x8+fJ0YwET1o4Qohl9I1xfTRJXgs3X+xWiGaUIN+8KOCx5CljS/NJPxWWgPK3PRvDwxjpniBhfWIhmlCLcVatWXbPEE6tDYjmxpDxsOax35uciWs5ziLv55pvtlltuScO11plohZQhQiLhipBIuCIkEq4IiYQrQiLhipBIuCIkHS9e8q3nzMa06o5oE5aKuvPK1H1zqlx159EntFyUaJ+/vcdscy+FK0RlaLkoMahIuCIkEq4IiYQrQiLhipBIuCIkEq4IiYQrQiLhipBIuCIkEq4IiYQrQiLhipBIuCIkEq4IiYQrQiLhipBIuCIkEq4ISVjhdrI+hNaUGBy6Ei4LlPAuWzb2fSGSquGV+5Q3GQg1v7IPaXzNCRGbroQ7Pj5u69atS99ny7ttEQlrnlXNwoULbe3atdlRa1hrjRV8HNKwQIqIT2muAi9w5gXPLMrn65QhbLfKLEjCMWAJjxw5ki4JRbyHw9GjR9PzifPF/siPcM5lqSlesc+yUoCVZyOONJwHnHP8+PE0rXcmVvFxC9yqbvmyiKM80X+U7uMiYBcHjc9CJFhkwhEIILRLly7Z+vXr0wVKXKAIhrXRNmzYkL7FnPMROaLCetIxsOx5F4BPrCpLT5Efx+TPa/iXLVtm8+fPv/xGdOLcz21Vt3xZxJHG6yf6h9KFy5oPiAPLxT4CZd8FTRyv2D99+nQazloRrLYDY2Nj6VoQvEKf1+xv2rTp8uv0GeKbrTUBN9xww+XzyIu8J8LL9Vf6k4Z60WkAsXtZ7FNv0V+ULlwsFiJ1EJFvLtAlS5akYsNS7t279/LwjpvRSpwTQQdxSO/D/kQUy0H4U0kn+oNShYtfiUCxUogXIWBBfcPCIRAs3qJFi9IhnOHdH6AQE3EOPulUxJRPw36+4zSDcnAHHHc9Jksn+oeuhcvDC/4hPiPr9bKwHuL0Bfd4MMLn5BxcAUAknI8weUjDAgP+Lsd+Pg9XU7HA5Mf5WG4e2nzpKe8I/iDnEO51ow6sKcyxuxui/+nqpXd5X5JGb2axOAeriVjyS0q1CifM82XaKz+Eu4hxKfBHKQ/BYuE5D8vpaRzPDx8ZgZOHxzerQ7Gs4rGogapfekdj+9ZqmCUO0bgwnFbhCIRwNhcYYXnhYM2L5SHYfBrH8wPS5OOb1aFYVvFY9AddCbcfQHTMUojri/DCxT/GVRDXF+GFK65PJFwREglXhETCFSHpeB539xGtuiPaZ2ix2arJflla5ao7Dzxmdli/yRZt8siWxlpnE1KlcCVa0QkL55gtmOwnIVrnTIRE65yJQUXCFSGRcEVIJFwREglXhETCFSGRcEVIJFwREglXhETCFSGRcEVIJFwREglXhETCFSGRcEVIJFwREglXhETCFSGRcEVIJFwREglXhETCFSGRcEVIJFwREglXhETCFSGRcEVIJFwREglXhETCFSGRcEVIJFwREglXhETCFSGRcEVIJFwREglXhETCFSGRcEVIJFwREglXhETCFSGRcEVIJFwREglXhETCFSGRcEVIJFwREglXhETCFSGRcEVIJFwREglXhGTa8PDwpWw/Zegzu23GoXGz795l9qFlWWh1vHTA7LUjZn9IPg+fMBs9m0WInrNwTmPbuMJs8xqzO5ON48q570WzXaM28uXVdnrLkizwanom3O+9YPbMKw2xijhsucPswXvMVi3OAqpgCsKt3VXAuj7wmNn3E+FKtPHA2DyYtV8vqVW4P/2d2UM/lGAHAUbMbU/0zrWrTbiIdvtz2YEYCHbsNnv48d6Itxbh4h5ItIPJ7qRte+E21CJchhQxuDCaMjtUJ5ULl4uSTzv4fO2ZbKcmahFuWTCf2GwaxucapwrnVjkfyZxnKx76SMVTST0C44TPWxeVCpcLKdPafuW+5qL4wMaGIKYK+dzShtDbYSgR5Tc+nR0UoLMwib9yAIULPyvRSE1GpcKt2+/pd3j6/sIPG98SDiI8qNVFpcKt80Ly/ODzZh9MrPC3P9vY/3piAScanj95d+O8ZudiJT93TyPu5w+ZPbLl6nj2SUMc5W2axJKTD1YZsPyMFqQn3N0Iz69YF6x1viy+xcrj10E8eXGcH4moWz49ZZcJHbOuNq9UuL16KEMYfC35refMHn2iYeFosGbQ+PcnDfzV5OFi6+ONc7cnjeo+MPn8ddLA/5Tk89nHMquZEwP50lh/n1hSHlA4fyJctLAgKSNfT4T0aCJmJvepC/fPy6I+lIX7RT0oC1G665S/DupCWvKmDPAOQXrimcKiE07kj3dCXW1e+cNZr0AMiBBRIQQasFkjYZVoRP+RD+eS5mOZNWP+mUn2PUnYWCLa3yQN7w+CWEB+6ME5pCVdu/PVfIVK3qQlb/LxeufLosN8YnvDj6QexLO5RUa4+evgoZh4B1E/n+RHeuIRMGUzMpVJXV9GDKxwaZw8NGizmQfC+IIkD765n4ul+1TS6NsSS8gwzPDuYD2L5RwqHE8GInRo9HzDF0XAUI+VdReIjuMg4GLZeeFyPe4q+IZom92TbvCRqmoqFa4PU2XRqjdP5WZRl7xInGZ5kp+fSwMzA4F1YvhmSM9TvMaqGg6R0nnoKLgJDPfFh99i2flj0tFBscq+kU/Z32iW3eatqFS4kz2otAtDZ/GBhMZhuM9bF8ifhzWi4YuWFUhXHC459vywSLgPPoznfVTOIW8frqFsC+aQL0J1F4COlS+XoZ/74Pg1O15X8vAtfy1lUdX1F6lUuGU7/jQaN5thkgcPNiwifmbxi457E+EyrCJgziEeX7IIFocG50HFzz2ZiAILCzQwswrE8ZkXB2LgPNIQTnxeLGVCWeRNOV7PPFhQvzcPJ9dC/O+TujvUk3i/TurKfpkWkvpVNeIUmbF169Zt2X7KwsdHbProxeRJYJXZunlZaGfQw3/xstm5C1lAl5APDxcM7/RsbtLOfWbf/JXZyKnspAQahQcqGorzaLQf78wiM/50qGG1SPffrzbcgbXLGr4wYh7P6oylBToh5ZLP8STNriQ9UD7hf7G68Yl1pp7k0wri/J4gSK/7tGTDqu8fuXJMnpRFOGVRD+rpltfT+73hmOvi4XRdch73iGsg/tnkPsye2ciDzv5vyX3z6ygD7nspFvdHw2ZHz9mZDy+y8xvnZoFXU/k/IGhIrEGdPPulxo/VaezrBdwyBJkfeXiI49hHjyrBSGHlS3E/+uEfEAxtdQ0f1zO4N0x5IR53FbBIuDp1QDuXItopUrlwEe1kk/Jlg5twPVlb4Hr9LzW4Iox0df3bBGtPp6mTyoUL9MY6xVuXlelHuHZcg4l87DLBRWCarm5qES7guNdteUW1lOrXtkltwgXEyxSVfN748LsKHv56IVqoVbiA29Dsl00iBszVYmX56ruub8maUbtwgV7K5DeT5XzSe+v6xkW0B6Ojf/GBYNmq+pKlHXr+CiYhrqEf32QjRBlIuCIkEq4IiYQrQiLhipBIuCIkEq4IiYQrQtJXX0Bcbz9FjABf69b+25J+XgMC+AkeG38t4S8noj/hK3q+kueref7LVzn9+s0Z/7blr9784JsfPku0/Q0jIcbl6880/hL1dA1/BZqM2oXrv8yv64fOolwQsQu43ZeflEmtwuUFFHX/cVJUAwJmxOyVeGsTLn+XruPfpqI+eineWoSLe1DnS39Ffbh4ef9DnVQuXHqj3IPBBvHWbZgqF65Ee33Ai0fqtLqVChdrO2h+LfOZvHBjKpPynMO5E8EfSMt+x1ovQLR1Wt1KhTuI7zfgv1dMwvuLnyeCb50mm7BHtPzNexCos70rFa6/MG5QwILy7+SfJJal1Zu8OQerPJEYiR8EK1sE4dblLlTuKgwSfOVJ4/wg8dsRX9FdIN7/ufy1Tzescx7EzF/z+Ws3LgL7gwYPanVQqXCbvQE8MlhbfHasCl9T59+XhYi/+BGz/0hEzZJQvMerCG/y4etuvnViConXmfbDX73LpK6v7ysV7iCBtURk7scxW5J/qQlxvDEx/4CSf+UncH4+jLz0O43OkHCnCG4AlharyUwB1hYxu6/Kg1hxhMkPm+5WvFkYSuucQqqDul7JVKlwe/VeqSrAX/W3ILLx4Mm6C/mHNMSbBz/YQaBsxXOKfnJ06rqeSoWbb7jI4AbQCXEPEK9vuAUM/zQWQs5bYCg+nOEW5MPId1DuEXAf6rqeSoXbasooGoiT36AWh3X3d1k/gjgetliAmvdrMWNQnFXh13E+80A8LofnMQjU+aBZ+T8g7t8e34/z4b3ZLEkxzv8tgH+LheW4OEVEA3PT8w9mgzAD42sTd00//ANiEF7mjKhaCasYh0jzf0VqNq+JlcVP9rSt8o4EblIpop0ilQsXn26Q/DjRnMl+k1E2lQsXGEIG7elZXIFvAev0b6EW4eLn1d0jRT3w4NoLd7AW4QIzDDxt4wuJwQA3kN9l9ILahAsMJ4i3TidelA9uH7/LYCGaXlGrcAG3AZ+XnjqIP+0bZBAs/izz0HUvyFek569gYrrIf2zChH30Od9BAqH6t2FstT2A9fsrmIRoihYvEYOKhCtCIuGKkEi4IiQSrgiJhCtCIuGKkEi4IiQSrgiJhCtCIuGKkEi4IiQSrgiJhCtCIuGKkEi4IiQSrghJ639AfHR5FiJEzQyf6eKvO0L0mLaEu+g7uTexCdFDzq+dPXXhChEBPZyJkEi4IiBm/w8+K26hSLhCngAAAABJRU5ErkJggg==;" vertex="1" parent="1">
                    <mxGeometry x="620" y="20" width="174" height="378" as="geometry"/>
                </mxCell>
                <mxCell id="3" value="Add incident" style="text;html=1;resizable=0;autosize=1;align=center;verticalAlign=middle;points=[];fillColor=none;strokeColor=none;rounded=0;" vertex="1" parent="1">
                    <mxGeometry x="667" y="80" width="80" height="20" as="geometry"/>
                </mxCell>
                <mxCell id="13" style="edgeStyle=orthogonalEdgeStyle;html=1;" edge="1" parent="1" source="4" target="8">
                    <mxGeometry relative="1" as="geometry">
                        <Array as="points">
                            <mxPoint x="360" y="130"/>
                            <mxPoint x="490" y="130"/>
                        </Array>
                    </mxGeometry>
                </mxCell>
                <mxCell id="14" style="edgeStyle=orthogonalEdgeStyle;html=1;entryX=0.625;entryY=-0.05;entryDx=0;entryDy=0;entryPerimeter=0;" edge="1" parent="1" source="4" target="7">
                    <mxGeometry relative="1" as="geometry"/>
                </mxCell>
                <mxCell id="15" style="edgeStyle=orthogonalEdgeStyle;html=1;entryX=0.5;entryY=0;entryDx=0;entryDy=0;" edge="1" parent="1" source="4" target="5">
                    <mxGeometry relative="1" as="geometry">
                        <Array as="points">
                            <mxPoint x="360" y="130"/>
                            <mxPoint x="170" y="130"/>
                        </Array>
                    </mxGeometry>
                </mxCell>
                <mxCell id="4" value="Add Incident" style="ellipse;whiteSpace=wrap;html=1;" vertex="1" parent="1">
                    <mxGeometry x="320" y="30" width="80" height="80" as="geometry"/>
                </mxCell>
                <mxCell id="5" value="Input form" style="whiteSpace=wrap;html=1;fillColor=#007FFF;" vertex="1" parent="1">
                    <mxGeometry x="110" y="150" width="120" height="60" as="geometry"/>
                </mxCell>
                <mxCell id="6" value="Copy &amp;amp; paste from details page, remove symptoms field" style="text;html=1;resizable=0;autosize=1;align=center;verticalAlign=middle;points=[];fillColor=none;strokeColor=none;rounded=0;" vertex="1" parent="1">
                    <mxGeometry x="-65" y="100" width="310" height="20" as="geometry"/>
                </mxCell>
                <mxCell id="7" value="Upload Image" style="whiteSpace=wrap;html=1;fillColor=#007FFF;" vertex="1" parent="1">
                    <mxGeometry x="260" y="150" width="120" height="60" as="geometry"/>
                </mxCell>
                <mxCell id="11" style="edgeStyle=none;html=1;entryX=0.5;entryY=0;entryDx=0;entryDy=0;" edge="1" parent="1" source="8" target="9">
                    <mxGeometry relative="1" as="geometry"/>
                </mxCell>
                <mxCell id="8" value="Add" style="whiteSpace=wrap;html=1;fillColor=#007FFF;" vertex="1" parent="1">
                    <mxGeometry x="430" y="150" width="120" height="60" as="geometry"/>
                </mxCell>
                <mxCell id="9" value="Symptom Details" style="ellipse;whiteSpace=wrap;html=1;fillColor=#FFFFFF;" vertex="1" parent="1">
                    <mxGeometry x="450" y="310" width="80" height="80" as="geometry"/>
                </mxCell>
                <mxCell id="10" value="Tweak from Add Symptom page&lt;br&gt;Update DB&lt;br&gt;Route back to Details" style="text;html=1;resizable=0;autosize=1;align=center;verticalAlign=middle;points=[];fillColor=none;strokeColor=none;rounded=0;" vertex="1" parent="1">
                    <mxGeometry x="280" y="240" width="190" height="50" as="geometry"/>
                </mxCell>
            </root>
        </mxGraphModel>
    </diagram>
</mxfile>